HIERARCHY
ROOT Hips
{
	OFFSET -0.001795 -0.223333 0.028219
	CHANNELS 6 Xposition Yposition Zposition Zrotation Yrotation Xrotation 
	JOINT LeftUpLeg
	{
		OFFSET 0.069520 -0.091406 -0.006815
		CHANNELS 3 Zrotation Yrotation Xrotation
		JOINT LeftLeg
		{
			OFFSET 0.034277 -0.375199 -0.004496
			CHANNELS 3 Zrotation Yrotation Xrotation
			JOINT LeftFoot
			{
				OFFSET -0.013596 -0.397961 -0.043693
				CHANNELS 3 Zrotation Yrotation Xrotation
				JOINT LeftToe
				{
					OFFSET 0.026358 -0.055791 0.119288
					CHANNELS 3 Zrotation Yrotation Xrotation
					End Site
					{
						OFFSET 0.000000 0.000000 0.000000
					}
				}
			}
		}
	}
	JOINT RightUpLeg
	{
		OFFSET -0.067670 -0.090522 -0.004320
		CHANNELS 3 Zrotation Yrotation Xrotation
		JOINT RightLeg
		{
			OFFSET -0.038290 -0.382569 -0.008850
			CHANNELS 3 Zrotation Yrotation Xrotation
			JOINT RightFoot
			{
				OFFSET 0.015774 -0.398415 -0.042312
				CHANNELS 3 Zrotation Yrotation Xrotation
				JOINT RightToe
				{
					OFFSET -0.025372 -0.048144 0.123348
					CHANNELS 3 Zrotation Yrotation Xrotation
					End Site
					{
						OFFSET 0.000000 0.000000 0.000000
					}
				}
			}
		}
	}
	JOINT Spine
	{
		OFFSET -0.002533 0.108963 -0.026696
		CHANNELS 3 Zrotation Yrotation Xrotation
		JOINT Spine1
		{
			OFFSET 0.005487 0.135180 0.001092
			CHANNELS 3 Zrotation Yrotation Xrotation
			JOINT Spine2
			{
				OFFSET 0.001457 0.052922 0.025425
				CHANNELS 3 Zrotation Yrotation Xrotation
				JOINT Neck
				{
					OFFSET -0.002778 0.213870 -0.042857
					CHANNELS 3 Zrotation Yrotation Xrotation
					JOINT Head
					{
						OFFSET 0.005152 0.064970 0.051349
						CHANNELS 3 Zrotation Yrotation Xrotation
						End Site
						{
							OFFSET 0.000000 0.000000 0.000000
						}
					}
				}
				JOINT LeftShoulder
				{
					OFFSET 0.078845 0.121749 -0.034090
					CHANNELS 3 Zrotation Yrotation Xrotation
					JOINT LeftArm
					{
						OFFSET 0.090977 0.030469 -0.008868
						CHANNELS 3 Zrotation Yrotation Xrotation
						JOINT LeftForeArm
						{
							OFFSET 0.259612 -0.012772 -0.027456
							CHANNELS 3 Zrotation Yrotation Xrotation
							JOINT LeftHand
							{
								OFFSET 0.249234 0.008986 -0.001171
								CHANNELS 3 Zrotation Yrotation Xrotation
								End Site
								{
									OFFSET 0.000000 0.000000 0.000000
								}
							}
						}
					}
				}
				JOINT RightShoulder
				{
					OFFSET -0.081759 0.118833 -0.038615
					CHANNELS 3 Zrotation Yrotation Xrotation
					JOINT RightArm
					{
						OFFSET -0.096012 0.032551 -0.009143
						CHANNELS 3 Zrotation Yrotation Xrotation
						JOINT RightForeArm
						{
							OFFSET -0.253742 -0.013329 -0.021401
							CHANNELS 3 Zrotation Yrotation Xrotation
							JOINT RightHand
							{
								OFFSET -0.255298 0.007772 -0.005559
								CHANNELS 3 Zrotation Yrotation Xrotation
								End Site
								{
									OFFSET 0.000000 0.000000 0.000000
								}
							}
						}
					}
				}
			}
		}
	}
}
MOTION
Frames: 7
Frame Time: 0.050000
0.009264 0.950728 -0.024104 -0.989577 5.535775 -7.128425 2.927919 0.249959 4.639220 -0.022249 0.028200 -0.717345 0.997918 6.848675 11.730033 0.000000 0.000000 0.000000 -7.055259 -0.262156 4.346154 8.039301 -1.028607 0.882345 -4.275983 -13.005056 16.018059 0.000000 0.000000 0.000000 -6.248503 -0.027620 10.305122 3.184353 -0.569422 -14.629159 5.533505 9.551758 28.636201 4.481898 -1.235980 -10.053209 0.000000 0.000000 0.000000 -32.170392 -2.513595 -6.117751 -46.778754 -0.899250 -5.849621 -10.583722 -57.221423 7.067167 0.000000 0.000000 0.000000 10.631213 19.495417 10.077738 -0.605132 47.045921 -3.342834 -51.538256 23.581004 -8.898138 0.000000 0.000000 0.000000 
0.009857 0.950053 -0.024884 -1.078654 5.865095 -7.086027 2.957315 0.246793 4.703800 0.023634 0.037308 -1.100808 0.866364 6.611372 11.542611 0.000000 0.000000 0.000000 -7.166798 -0.251281 4.013446 8.335665 -1.095966 1.371565 -4.457200 -13.267153 15.932190 0.000000 0.000000 0.000000 -6.471268 -0.015821 10.367761 3.408991 -0.656380 -14.314602 5.840936 9.419835 29.028079 4.281572 -1.069252 -9.986611 0.000000 0.000000 0.000000 -32.548971 -2.224622 -6.453986 -47.077556 -0.896518 -5.879602 -10.155980 -60.296796 7.264239 0.000000 0.000000 0.000000 12.546283 18.866456 10.391963 3.879631 45.563486 -2.040860 -53.013091 28.836426 -11.500445 0.000000 0.000000 0.000000 
0.009951 0.949638 -0.025618 -1.030597 5.999339 -7.296841 2.907141 0.255015 4.813822 0.005207 0.035273 -0.992005 0.822455 6.509892 11.408225 0.000000 0.000000 0.000000 -7.286214 -0.249289 3.871402 8.419143 -1.135741 1.994404 -4.540325 -13.381999 15.766600 0.000000 0.000000 0.000000 -6.949225 0.011955 10.746408 3.535063 -0.726173 -13.899420 6.343531 9.445368 29.443605 3.523525 -0.531515 -9.325966 0.000000 0.000000 0.000000 -33.420857 -1.944403 -6.926395 -46.991717 -0.811890 -5.843376 -9.158302 -63.551157 7.129242 0.000000 0.000000 0.000000 14.900219 18.742510 11.069779 8.151457 43.766322 -0.992121 -53.994013 33.652951 -13.941543 0.000000 0.000000 0.000000 
0.009550 0.949470 -0.026540 -1.100185 6.446275 -7.727382 3.244759 0.237058 4.870284 -0.406436 0.057412 -0.497802 0.606821 6.149473 11.229462 0.000000 0.000000 0.000000 -7.054991 -0.274636 3.923440 8.167891 -1.139233 2.731441 -4.778117 -13.736924 15.694749 0.000000 0.000000 0.000000 -7.260804 0.022821 11.443191 3.605831 -0.770142 -13.454686 6.771016 9.659763 29.555840 3.410284 -0.507828 -8.579413 0.000000 0.000000 0.000000 -33.558897 -1.849487 -7.254859 -47.066191 -0.781370 -5.782202 -10.350891 -65.877239 8.104084 0.000000 0.000000 0.000000 16.522701 18.508390 11.532558 11.678843 42.431771 -0.197432 -54.327075 36.328437 -15.179742 0.000000 0.000000 0.000000 
0.008807 0.949623 -0.027712 -1.182976 6.304666 -7.582135 3.298019 0.217312 4.522673 -0.278417 0.038479 -0.295232 0.678723 6.277898 11.301969 0.000000 0.000000 0.000000 -6.994768 -0.258081 3.677625 8.304185 -1.154750 2.681171 -4.716399 -13.648350 15.788818 0.000000 0.000000 0.000000 -7.455264 0.041458 11.396982 3.786460 -0.862658 -13.086004 7.122584 10.096070 29.539914 3.369604 -0.505202 -8.109337 0.000000 0.000000 0.000000 -33.382446 -1.660976 -7.530582 -47.157723 -0.422748 -5.861745 -13.789726 -67.176347 10.465854 0.000000 0.000000 0.000000 17.704903 18.663184 12.079308 13.395441 41.947398 0.131338 -54.581831 36.935211 -15.425790 0.000000 0.000000 0.000000 
0.008137 0.949947 -0.029083 -1.320463 6.024899 -7.699739 3.584167 0.203104 4.422008 -0.453599 0.046745 -0.012904 0.782422 6.458367 11.413248 0.000000 0.000000 0.000000 -6.804186 -0.252003 3.570143 8.289874 -1.152332 2.833142 -4.582016 -13.453738 15.884880 0.000000 0.000000 0.000000 -7.354507 0.041369 11.932060 3.709149 -0.837220 -13.171363 7.489605 10.350598 29.408869 3.703695 -0.956138 -7.211110 0.000000 0.000000 0.000000 -33.694502 -1.897314 -7.500893 -46.674717 0.222531 -5.972598 -15.273328 -67.465532 11.501089 0.000000 0.000000 0.000000 17.720357 19.209386 12.365729 13.515680 42.112289 0.207979 -55.953756 35.664059 -15.246460 0.000000 0.000000 0.000000 
0.007685 0.950145 -0.030506 -1.260605 5.910620 -7.592452 3.613454 0.191363 4.192157 -0.592919 0.058702 0.055203 0.811624 6.546592 11.571815 0.000000 0.000000 0.000000 -7.014457 -0.233473 3.343034 8.581097 -1.194339 2.833302 -4.506432 -13.346949 15.991171 0.000000 0.000000 0.000000 -7.153812 0.033638 12.230722 3.671639 -0.822343 -13.226808 7.417234 10.511909 29.066669 3.737783 -1.016457 -7.024978 0.000000 0.000000 0.000000 -33.672114 -2.036734 -7.450842 -46.559134 0.697360 -6.083524 -17.457805 -66.601540 12.721092 0.000000 0.000000 0.000000 17.169801 19.600464 12.405270 12.593227 42.859981 0.089564 -57.036708 34.097910 -14.803456 0.000000 0.000000 0.000000 
